<?xml version="1.0" encoding="utf-8"?>
<!-- Svg Vector Icons : http://www.sfont.cn -->
<!DOCTYPE svg PUBLIC "-//W3C//DTD SVG 1.1//EN" "http://www.w3.org/Graphics/SVG/1.1/DTD/svg11.dtd">
<svg version="1.1" xmlns="http://www.w3.org/2000/svg" xmlns:xlink="http://www.w3.org/1999/xlink" x="0px" y="0px" viewBox="0 0 1000 1000" enable-background="new 0 0 1000 1000" xml:space="preserve">
    <defs><style>* { fill: #fff }</style></defs>
    <metadata> Svg Vector Icons : http://www.sfont.cn </metadata>
<g><path d="M822.6,656c68.7-0.4,144.7,23.8,83.4,101.8C865.7,809.1,756.6,900.6,685.6,861c-10.5-5.9-8.6-23.3,3.4-26.1c53.8-12.4,116.1-29.2,143.5-78.8C753.1,778.4,672,799.3,589.4,804c-51,2.8-121.2,4.7-168.1-25.3c-41.2,52.7-125.9,32.6-172.6,91.6c-36.1,45.5-78.8,139.9-151.1,115.8c-10.2-3.4-12.2-16.7-3-22.6c57.6-36.5,93.5-93.1,137.9-142.5c-3.9,1.5-7.7,3.4-11.4,5.9c-17,11.4-30.7,26-46,39.3c-23.9,20.6-51.4,39-83.4,43.3c-5.5,0.8-10.5-0.4-13.7-5.5c-1.9-3.2-2.4-5.8-2-8.2c-5.9-2.2-6.3-12,0.7-13.9c50.3-13.6,69-56.2,109.6-84.1c28.6-19.5,66.6-33.5,102.1-37.1c21.1-36.5,15.6-79.4,38.7-116.8c-50.8,1.6-70.4-64.2-44.3-106.7c6.2-10.1,24.5-6.7,23.5,6.5c-2.3,32.2,21.8,44.9,48.7,51.8c42.6-14.8,84.3-10.5,130.6-2.3c65.8,11.7,188.2,9.9,183.2-87.3c-1.3-25.8-20-82.5-22.9-128.9c-1.5-0.1-3.1-0.7-4.6-1.6c-1.2-0.8-2.4-1.9-3.8-2.7c-10.8,0.3-20.6-2.3-30-10.1c-12.9-10.9-23.3-24.6-39.3-31.2c-10.8-4.4-12.9-20.4,0-23.9c18.3-5.1,37.4-7.9,55.8-2.7c-19.9-15.5-39-32-56.9-49.8c-23.3,16.5-58,23.8-79.9,1.8c-7.5-7.5,1.9-19.2,11-14.4c17.1,9.1,36.2,4.8,51.2-5.8c-6.1-6.9-12.1-13.7-17.6-21c-5.4-6.9-10.9-14.3-16.3-21.9c-26.1,2.3-49.4-12.1-59.6-37.9c-3.6-9.3,9.9-13.2,14.9-6.3c7.5,10.5,18.2,18.4,29.9,20.6c-13.2-24.2-21.3-50.6-14.1-77.1c2.3-8.1,15.6-9,17.2,0c4.4,25.6,13.4,48.6,25.3,69.7c16.8-12.5,15.3-28.9,22.2-48c3-8.3,16.7-12.9,21.3-2.8c11.6,26.2-5.8,58-29.7,72.9c7.7,11.2,16.1,21.8,25.2,32.1c4.3-6.5,7.7-13.3,9-21c2-10.8-1.6-21.5,1.8-31.7c2.5-7.9,12.2-10.9,18.4-5c20.9,20.3,6.7,54.7-11,77.3c23.7,24.8,49.6,48,74.3,72.1c-19.5-25.7-24.6-55-24.4-85.7c-23.9-7.3-34.2-31.7-21.5-62.2c2.6-6.3,12.9-6.2,12.8,1.7c-0.3,10.2-1.7,30.5,9.8,35.8c1.6-21.3,4.7-42.9,6.2-64.4c-30-3.4-46.7-27.2-49.6-56.5c-0.9-10.4,15.3-12.1,17.9-2.4c4.2,15.2,14.9,34.6,32.8,34.2c0-30-4.8-59-22.3-85.6c-4.8-7.3,4.8-17.4,12.2-12.2c28,20,38.2,49.9,39.5,82.1c5.7-7.4,9-16.4,18-20.3c6.2-2.7,12.8-0.7,14.9,6.1c6.5,19.9-13.6,39.7-34.6,49.4c-2.8,23.4-6.3,46-7.9,67.8c3.2-1.2,6.3-2.5,9.3-4c31.2-16.3,43.7-39.4,62.3-67.1c6.7-10,22.1-6.2,22.5,6c1.7,43.2-55.6,86.5-94.3,93c-0.1,0-0.4,0-0.7,0.1c0.5,27.4,5.9,53.9,21.9,79.9c21.7-6.3,46.5-4.7,68.2-7c32-3.4,69.2-12.6,97.5,6.9c49.4,34-28.2,96.1-63.2,115.6c5.1,51.8,22.7,98.2,33.8,151.3C828,600.9,831.4,629.9,822.6,656"/></g>
</svg>
