<?xml version="1.0" encoding="utf-8"?>
<!-- Svg Vector Icons : http://www.sfont.cn -->
<!DOCTYPE svg PUBLIC "-//W3C//DTD SVG 1.1//EN" "http://www.w3.org/Graphics/SVG/1.1/DTD/svg11.dtd">
<svg version="1.1" xmlns="http://www.w3.org/2000/svg" xmlns:xlink="http://www.w3.org/1999/xlink" x="0px" y="0px" viewBox="0 0 1000 1000" enable-background="new 0 0 1000 1000" xml:space="preserve">
    <defs><style>* { fill: #a9b7b7 }</style></defs>
    <metadata> Svg Vector Icons : http://www.sfont.cn </metadata>
<g><path d="M327.5,695.6c70.6-14.2,128.6-64.9,133.7-77.1c-0.5-10.8,3.6-13.2,7.3-20.2c1-8.1,32.4-12.6,44-17.7c1.4-1.8,0-8.9,0-8.9s-38.6,11.5-88.1,8.9c-27.1-3.6-46.7-21.9-61.7-35.4c39.6-57.3,74.5-37.7,70.5-115c-67.5-3.5-79-19.9-105.7-61.9c35.2,5.9,70.5,11.8,105.7,17.7c-81.9-85.9-238.4-62.9-237.9-212.3c7.4-25,10.5-35.5,17.6-44.2c-10,68-4.4,66.9,0,88.4c14.2,30.2,22.4,26.6,52.9,47.6c-5.9-26.5-11.8-63.3-17.6-93.9c2.9,0,5.9,0,8.8,0c8.5,61.3,27.3,107.3,79.3,129.3c-2.9-11.8-19.9-29.7-22.8-41.5c79.3,81.8,69.9,72,100.5,82.4c0-23.6,0-47.6,0-78.2c0,0,16.2,0,19.2,0c-0.8,91.9,10.6,105.8,44,127.6c17.6-2.9,38.8,0.7,61.7,1.9c38.6-51.1,41.5-95.9,26.4-144.7c21.5,42.8,17.8,45.8,17.6,76.5c8.8,0,26.4,0,35.2,0c54.3,0,56.2-38.6,88.1-75.5c-7.4,28.3-20.5,37.4-26.4,55.1c103.9-34.8,83.9-65.1,105.7-140.5c6.5,62.8-6.2,75.4-8.8,89c5.9-2.9,11.8-5.6,17.6-8.6c24.6-27.7,20.6-70.1,26.4-114.8C734.9,54.9,622.7,9.8,500,9.8c-270.6,0-490,219.4-490,490c0,83.7,21,162.5,58,231.4C171.3,671.9,229.1,707.2,327.5,695.6z"/><path d="M820.9,129.5c8.6,38.4,4.1,99.8,0,106.1c-85.2,121.6-215.9,74-259.4,159.2c39.8-21,67-33.5,128.2-35.4c0,2.9,0,5.9,0,8.9c0,0.4-16.6,8.9-22.5,8.9c-25.7,47.4-21.7,66.8-94.9,70.8c49.4,134.8,12.8,199.2,9.8,309.6c62.3,1.6,107.4-53.4,150.3-26.5c0,2.9-8.6,41.3-8.6,44.2c-12.9,33.2-26.8,48.2-26.3,106.1c-22,19.6-35.2,44.1-52.8,70.8c-9.2,1.4-24.3,1.1-46.8,8.3c-2.5-2.1,0-4.5-30.6-8.3c0-2.9,0-5.9,0-8.8c61.3,1.8,91.3-67.3,95.1-128.5c-2.9,0-5.9,0-8.8,0c-32.9,0-51.8,21.8-105.7,42.1c-5.5,2.1-38.4,1.7-43.1,5.4c-98,56.9-122.8,77.7-223.9,76.4c66,33,140.4,51.4,219.2,51.4c270.6,0,490-219.5,490-490.1C990,352.1,924.5,219.4,820.9,129.5z"/></g>
</svg>
